<svg width="15" height="15" viewBox="0 0 15 15" fill="none" xmlns="http://www.w3.org/2000/svg">
<path fill-rule="evenodd" clip-rule="evenodd" d="M7.5 0C7.77614 0 8 0.223858 8 0.5V14.5C8 14.7761 7.77614 15 7.5 15C7.22386 15 7 14.7761 7 14.5V0.5C7 0.223858 7.22386 0 7.5 0Z" fill="black"/>
<path fill-rule="evenodd" clip-rule="evenodd" d="M0.146447 7.14645C0.341709 6.95118 0.658291 6.95118 0.853553 7.14645L7.5 13.7929L14.1464 7.14645C14.3417 6.95118 14.6583 6.95118 14.8536 7.14645C15.0488 7.34171 15.0488 7.65829 14.8536 7.85355L7.85355 14.8536C7.65829 15.0488 7.34171 15.0488 7.14645 14.8536L0.146447 7.85355C-0.0488155 7.65829 -0.0488155 7.34171 0.146447 7.14645Z" fill="black"/>
</svg>
