<svg width="80" height="80" viewBox="0 0 80 80" fill="none" xmlns="http://www.w3.org/2000/svg">
<path d="M80 30.7133C80 29.9896 79.5325 29.3889 78.8879 29.1586L69.8958 22.3175V9.42749C69.8958 8.50708 69.1496 7.76082 68.2292 7.76082H50.7625L41.0091 0.340576C40.4134 -0.113525 39.5866 -0.113525 38.9909 0.340576L29.2362 7.76082H11.7708C10.8504 7.76082 10.1042 8.50708 10.1042 9.42749V22.3165L1.11094 29.1588C0.466919 29.3894 0 29.99 0 30.7133V75.2104C0 77.852 2.26562 80.0004 5.04964 80.0004H74.9495C77.7344 80.0004 80 77.852 80 75.2104V30.7133ZM69.8958 26.5058L75.4264 30.7133L69.8958 34.921V26.5058ZM40 3.76099L45.2573 7.76082H34.742L40 3.76099ZM13.4375 11.0942H50.1789C50.1875 11.0943 50.1957 11.0982 50.2043 11.0982C50.2104 11.0982 50.216 11.0943 50.2221 11.0942H66.5625V37.457L40 57.6656L13.4375 37.4574V11.0942ZM10.1042 26.5049V34.9215L4.57275 30.7133L10.1042 26.5049ZM3.33333 75.0881V33.9584L30.3645 54.5232L3.33333 75.0881ZM6.76331 76.6671L33.1173 56.6174L38.9909 61.086C39.2887 61.3131 39.6444 61.4262 40 61.4262C40.3556 61.4262 40.7113 61.3131 41.0091 61.086L46.8823 56.6177L73.2367 76.6671H6.76331ZM76.6667 75.0881L49.635 54.5234L76.6667 33.9579V75.0881Z" fill="#F68928"/>
</svg>
