<svg width="57" height="80" viewBox="0 0 57 80" fill="none" xmlns="http://www.w3.org/2000/svg">
<path d="M9.07614 80L0 70.9239L28.2369 42.687L37.313 51.7631L9.07614 80Z" fill="#F19441"/>
<path d="M56.4737 70.9239L47.3976 80L19.1607 51.7631L28.2369 42.687L56.4737 70.9239Z" fill="#F19441"/>
<path fill-rule="evenodd" clip-rule="evenodd" d="M49.631 21.3927C49.631 33.2075 40.0532 42.7853 28.2384 42.7853C16.4235 42.7853 6.8457 33.2075 6.8457 21.3927C6.8457 9.57782 16.4235 0 28.2384 0C40.0532 0 49.631 9.57782 49.631 21.3927ZM42.6428 17.3994C42.6428 21.5739 39.2586 24.9581 35.084 24.9581C30.9094 24.9581 27.5253 21.5739 27.5253 17.3994C27.5253 13.2248 30.9094 9.84062 35.084 9.84062C39.2586 9.84062 42.6428 13.2248 42.6428 17.3994ZM23.2659 6.60639C24.0311 6.41967 24.5001 5.64798 24.3133 4.88278C24.1266 4.11758 23.3549 3.64862 22.5897 3.83535C18.3904 4.86005 16.4364 7.08594 15.2547 8.52088C14.754 9.12891 14.841 10.0277 15.4491 10.5284C16.0571 11.0291 16.9559 10.9421 17.4566 10.3341C18.4715 9.10169 19.9361 7.41893 23.2659 6.60639Z" fill="#F19441"/>
<path d="M42.0723 15.4028C42.0723 17.687 40.2206 19.5387 37.9364 19.5387C35.6522 19.5387 33.8005 17.687 33.8005 15.4028C33.8005 13.1186 35.6522 11.2668 37.9364 11.2668C40.2206 11.2668 42.0723 13.1186 42.0723 15.4028Z" fill="#F19441"/>
</svg>
