<svg width="24" height="17" viewBox="0 0 24 17" fill="none" xmlns="http://www.w3.org/2000/svg">
<path fill-rule="evenodd" clip-rule="evenodd" d="M0 8.4002C0 7.73745 0.537258 7.2002 1.2 7.2002H22.8C23.4627 7.2002 24 7.73745 24 8.4002C24 9.06294 23.4627 9.6002 22.8 9.6002H1.2C0.537258 9.6002 0 9.06294 0 8.4002Z" fill="black"/>
<path fill-rule="evenodd" clip-rule="evenodd" d="M0 1.2C0 0.537258 0.537258 0 1.2 0H22.8C23.4627 0 24 0.537258 24 1.2C24 1.86274 23.4627 2.4 22.8 2.4H1.2C0.537258 2.4 0 1.86274 0 1.2Z" fill="black"/>
<path fill-rule="evenodd" clip-rule="evenodd" d="M0 15.5999C0 14.9372 0.537258 14.3999 1.2 14.3999H22.8C23.4627 14.3999 24 14.9372 24 15.5999C24 16.2626 23.4627 16.7999 22.8 16.7999H1.2C0.537258 16.7999 0 16.2626 0 15.5999Z" fill="black"/>
</svg>
