<svg width="188" height="80" viewBox="0 0 188 80" fill="none" xmlns="http://www.w3.org/2000/svg">
<path d="M9.07614 80L0 70.9239L28.2369 42.687L37.313 51.7631L9.07614 80Z" fill="#F19441"/>
<path d="M56.4737 70.9239L47.3976 80L19.1607 51.7631L28.2369 42.687L56.4737 70.9239Z" fill="#F19441"/>
<path fill-rule="evenodd" clip-rule="evenodd" d="M49.631 21.3927C49.631 33.2075 40.0532 42.7853 28.2384 42.7853C16.4235 42.7853 6.8457 33.2075 6.8457 21.3927C6.8457 9.57782 16.4235 0 28.2384 0C40.0532 0 49.631 9.57782 49.631 21.3927ZM42.6427 17.3994C42.6427 21.5739 39.2586 24.9581 35.084 24.9581C30.9094 24.9581 27.5253 21.5739 27.5253 17.3994C27.5253 13.2248 30.9094 9.84062 35.084 9.84062C39.2586 9.84062 42.6427 13.2248 42.6427 17.3994ZM23.2659 6.60639C24.0311 6.41967 24.5001 5.64798 24.3133 4.88278C24.1266 4.11758 23.3549 3.64862 22.5897 3.83535C18.3904 4.86005 16.4364 7.08594 15.2547 8.52088C14.754 9.12891 14.841 10.0277 15.4491 10.5284C16.0571 11.0291 16.9559 10.9421 17.4566 10.3341C18.4715 9.10169 19.9361 7.41893 23.2659 6.60639Z" fill="#F19441"/>
<path d="M42.0726 15.4025C42.0726 17.6867 40.2209 19.5384 37.9367 19.5384C35.6525 19.5384 33.8008 17.6867 33.8008 15.4025C33.8008 13.1183 35.6525 11.2666 37.9367 11.2666C40.2209 11.2666 42.0726 13.1183 42.0726 15.4025Z" fill="#F19441"/>
<path d="M76.5727 21.0493C75.5945 21.0493 74.7749 20.7453 74.1139 20.1372C73.4794 19.5027 73.1621 18.7227 73.1621 17.7974C73.1621 16.872 73.4794 16.1053 74.1139 15.4972C74.7749 14.8627 75.5945 14.5454 76.5727 14.5454C77.5509 14.5454 78.3573 14.8627 78.9919 15.4972C79.6528 16.1053 79.9833 16.872 79.9833 17.7974C79.9833 18.7227 79.6528 19.5027 78.9919 20.1372C78.3573 20.7453 77.5509 21.0493 76.5727 21.0493ZM79.3091 23.6668V45.6374H73.757V23.6668H79.3091Z" fill="black"/>
<path d="M90.5752 28.2275V38.8558C90.5752 39.5961 90.747 40.1381 91.0907 40.4818C91.4609 40.7991 92.0689 40.9577 92.915 40.9577H95.4928V45.6374H92.0028C87.3232 45.6374 84.9834 43.3636 84.9834 38.8162V28.2275H82.3659V23.6668H84.9834V18.2336H90.5752V23.6668H95.4928V28.2275H90.5752Z" fill="black"/>
<path d="M126.087 23.3495C128.784 23.3495 130.952 24.1823 132.591 25.848C134.257 27.4872 135.09 29.7873 135.09 32.7485V45.6374H129.537V33.502C129.537 31.7835 129.101 30.4748 128.229 29.5758C127.356 28.6505 126.166 28.1878 124.659 28.1878C123.152 28.1878 121.95 28.6505 121.051 29.5758C120.178 30.4748 119.742 31.7835 119.742 33.502V45.6374H114.19V33.502C114.19 31.7835 113.753 30.4748 112.881 29.5758C112.009 28.6505 110.819 28.1878 109.312 28.1878C107.778 28.1878 106.562 28.6505 105.663 29.5758C104.791 30.4748 104.355 31.7835 104.355 33.502V45.6374H98.8024V23.6668H104.355V26.3239C105.068 25.3985 105.981 24.6714 107.091 24.1427C108.228 23.6139 109.47 23.3495 110.819 23.3495C112.537 23.3495 114.071 23.7197 115.419 24.4599C116.768 25.1738 117.812 26.2049 118.552 27.5533C119.266 26.2842 120.297 25.2663 121.645 24.4996C123.02 23.7329 124.501 23.3495 126.087 23.3495Z" fill="black"/>
<path d="M145.455 28.2275V38.8558C145.455 39.5961 145.627 40.1381 145.971 40.4818C146.341 40.7991 146.949 40.9577 147.795 40.9577H150.373V45.6374H146.883C142.203 45.6374 139.863 43.3636 139.863 38.8162V28.2275H137.246V23.6668H139.863V18.2336H145.455V23.6668H150.373V28.2275H145.455Z" fill="black"/>
<path d="M159.234 26.8791C159.948 25.8215 160.926 24.9623 162.169 24.3013C163.438 23.6403 164.879 23.3099 166.492 23.3099C168.369 23.3099 170.061 23.7725 171.568 24.6979C173.101 25.6232 174.304 26.9452 175.177 28.6637C176.076 30.3558 176.525 32.3255 176.525 34.5728C176.525 36.8201 176.076 38.8162 175.177 40.5611C174.304 42.2797 173.101 43.6148 171.568 44.5666C170.061 45.5184 168.369 45.9943 166.492 45.9943C164.853 45.9943 163.412 45.677 162.169 45.0425C160.953 44.3815 159.975 43.5355 159.234 42.5044V45.6374H153.682V16.2904H159.234V26.8791ZM170.854 34.5728C170.854 33.2508 170.577 32.114 170.021 31.1622C169.493 30.1839 168.779 29.4436 167.88 28.9413C167.007 28.439 166.056 28.1878 165.024 28.1878C164.02 28.1878 163.068 28.4522 162.169 28.981C161.297 29.4833 160.583 30.2236 160.027 31.2018C159.499 32.1801 159.234 33.3301 159.234 34.6521C159.234 35.974 159.499 37.1241 160.027 38.1023C160.583 39.0806 161.297 39.8341 162.169 40.3628C163.068 40.8652 164.02 41.1163 165.024 41.1163C166.056 41.1163 167.007 40.852 167.88 40.3232C168.779 39.7944 169.493 39.0409 170.021 38.0627C170.577 37.0844 170.854 35.9211 170.854 34.5728Z" fill="black"/>
<path d="M183.589 45.982C182.342 45.982 181.308 45.6046 180.487 44.8497C179.7 44.062 179.306 43.0938 179.306 41.9451C179.306 40.7964 179.7 39.8446 180.487 39.0897C181.308 38.302 182.342 37.9082 183.589 37.9082C184.803 37.9082 185.804 38.302 186.592 39.0897C187.38 39.8446 187.773 40.7964 187.773 41.9451C187.773 43.0938 187.38 44.062 186.592 44.8497C185.804 45.6046 184.803 45.982 183.589 45.982Z" fill="#F19441"/>
<g opacity="0.5">
<path d="M74.7042 58.9153V61.5656C74.7042 61.7844 74.7507 61.9403 74.8437 62.0333C74.9367 62.1208 75.0981 62.1646 75.3278 62.1646H75.8776V62.7963H75.2047C74.789 62.7963 74.4772 62.7006 74.2694 62.5092C74.0615 62.3177 73.9576 62.0032 73.9576 61.5656V58.9153H73.375V58.2999H73.9576V57.1676H74.7042V58.2999H75.8776V58.9153H74.7042Z" fill="black"/>
<path d="M85.972 60.3758C85.972 60.5181 85.9638 60.6685 85.9474 60.8271H82.3535C82.3809 61.2702 82.5313 61.6175 82.8048 61.8692C83.0838 62.1153 83.4202 62.2384 83.814 62.2384C84.1368 62.2384 84.4048 62.1646 84.6181 62.0169C84.8369 61.8637 84.9901 61.6613 85.0776 61.4097H85.8817C85.7614 61.8418 85.5207 62.1946 85.1597 62.4681C84.7987 62.7362 84.3501 62.8702 83.814 62.8702C83.3874 62.8702 83.0045 62.7745 82.6653 62.583C82.3316 62.3916 82.0691 62.1208 81.8776 61.7707C81.6862 61.4152 81.5904 61.0049 81.5904 60.5399C81.5904 60.075 81.6834 59.6675 81.8694 59.3174C82.0554 58.9673 82.3152 58.6993 82.6489 58.5133C82.9881 58.3218 83.3764 58.2261 83.814 58.2261C84.2407 58.2261 84.6181 58.3191 84.9463 58.5051C85.2746 58.6911 85.5262 58.9481 85.7012 59.2763C85.8817 59.5991 85.972 59.9656 85.972 60.3758ZM85.2007 60.2199C85.2007 59.9355 85.1378 59.6921 85.012 59.4897C84.8862 59.2818 84.7139 59.1259 84.4951 59.022C84.2817 58.9126 84.0438 58.8579 83.7812 58.8579C83.4038 58.8579 83.081 58.9782 82.813 59.2189C82.5504 59.4596 82.4 59.7933 82.3617 60.2199H85.2007Z" fill="black"/>
<path d="M91.7658 60.5399C91.7658 60.075 91.8588 59.6702 92.0447 59.3256C92.2307 58.9755 92.4878 58.7047 92.816 58.5133C93.1497 58.3218 93.5299 58.2261 93.9565 58.2261C94.509 58.2261 94.963 58.3601 95.3186 58.6281C95.6796 58.8962 95.9176 59.2681 96.0324 59.744H95.2283C95.1518 59.4705 95.0013 59.2545 94.7771 59.0958C94.5582 58.9372 94.2847 58.8579 93.9565 58.8579C93.5299 58.8579 93.1853 59.0056 92.9227 59.301C92.6601 59.5909 92.5288 60.0039 92.5288 60.5399C92.5288 61.0815 92.6601 61.4999 92.9227 61.7953C93.1853 62.0907 93.5299 62.2384 93.9565 62.2384C94.2847 62.2384 94.5582 62.1618 94.7771 62.0087C94.9959 61.8555 95.1463 61.6367 95.2283 61.3522H96.0324C95.9121 61.8117 95.6714 62.181 95.3104 62.4599C94.9494 62.7334 94.4981 62.8702 93.9565 62.8702C93.5299 62.8702 93.1497 62.7745 92.816 62.583C92.4878 62.3916 92.2307 62.1208 92.0447 61.7707C91.8588 61.4206 91.7658 61.0104 91.7658 60.5399Z" fill="black"/>
<path d="M104.348 58.2179C104.687 58.2179 104.993 58.2917 105.267 58.4394C105.54 58.5816 105.754 58.7977 105.907 59.0876C106.065 59.3775 106.145 59.7304 106.145 60.1461V62.7963H105.406V60.2528C105.406 59.8042 105.294 59.4623 105.07 59.2271C104.845 58.9864 104.539 58.8661 104.151 58.8661C103.757 58.8661 103.442 58.9892 103.207 59.2353C102.977 59.4815 102.863 59.8398 102.863 60.3102V62.7963H102.116V56.7246H102.863V58.9399C103.01 58.7102 103.213 58.5324 103.47 58.4066C103.732 58.2808 104.025 58.2179 104.348 58.2179Z" fill="black"/>
<path d="M114.642 58.2179C115.189 58.2179 115.632 58.3847 115.971 58.7184C116.311 59.0466 116.48 59.5225 116.48 60.1461V62.7963H115.742V60.2528C115.742 59.8042 115.63 59.4623 115.405 59.2271C115.181 58.9864 114.875 58.8661 114.486 58.8661C114.092 58.8661 113.778 58.9892 113.543 59.2353C113.313 59.4815 113.198 59.8398 113.198 60.3102V62.7963H112.451V58.2999H113.198V58.9399C113.346 58.7102 113.545 58.5324 113.797 58.4066C114.054 58.2808 114.336 58.2179 114.642 58.2179Z" fill="black"/>
<path d="M124.748 62.8702C124.327 62.8702 123.944 62.7745 123.599 62.583C123.26 62.3916 122.992 62.1208 122.795 61.7707C122.604 61.4152 122.508 61.0049 122.508 60.5399C122.508 60.0805 122.607 59.6757 122.803 59.3256C123.006 58.97 123.279 58.6993 123.624 58.5133C123.969 58.3218 124.354 58.2261 124.781 58.2261C125.208 58.2261 125.593 58.3218 125.938 58.5133C126.282 58.6993 126.553 58.9673 126.75 59.3174C126.953 59.6675 127.054 60.075 127.054 60.5399C127.054 61.0049 126.95 61.4152 126.742 61.7707C126.54 62.1208 126.263 62.3916 125.913 62.583C125.563 62.7745 125.175 62.8702 124.748 62.8702ZM124.748 62.2138C125.016 62.2138 125.268 62.1509 125.503 62.0251C125.738 61.8993 125.927 61.7105 126.069 61.4589C126.217 61.2073 126.291 60.901 126.291 60.5399C126.291 60.1789 126.22 59.8726 126.077 59.621C125.935 59.3693 125.749 59.1834 125.519 59.063C125.29 58.9372 125.041 58.8743 124.773 58.8743C124.499 58.8743 124.248 58.9372 124.018 59.063C123.794 59.1834 123.613 59.3693 123.476 59.621C123.34 59.8726 123.271 60.1789 123.271 60.5399C123.271 60.9064 123.337 61.2155 123.468 61.4671C123.605 61.7187 123.785 61.9075 124.01 62.0333C124.234 62.1536 124.48 62.2138 124.748 62.2138Z" fill="black"/>
<path d="M133.869 56.7246V62.7963H133.123V56.7246H133.869Z" fill="black"/>
<path d="M142.19 62.8702C141.769 62.8702 141.386 62.7745 141.041 62.583C140.702 62.3916 140.434 62.1208 140.237 61.7707C140.046 61.4152 139.95 61.0049 139.95 60.5399C139.95 60.0805 140.049 59.6757 140.245 59.3256C140.448 58.97 140.721 58.6993 141.066 58.5133C141.411 58.3218 141.796 58.2261 142.223 58.2261C142.65 58.2261 143.035 58.3218 143.38 58.5133C143.724 58.6993 143.995 58.9673 144.192 59.3174C144.395 59.6675 144.496 60.075 144.496 60.5399C144.496 61.0049 144.392 61.4152 144.184 61.7707C143.982 62.1208 143.705 62.3916 143.355 62.583C143.005 62.7745 142.617 62.8702 142.19 62.8702ZM142.19 62.2138C142.458 62.2138 142.71 62.1509 142.945 62.0251C143.18 61.8993 143.369 61.7105 143.511 61.4589C143.659 61.2073 143.733 60.901 143.733 60.5399C143.733 60.1789 143.662 59.8726 143.519 59.621C143.377 59.3693 143.191 59.1834 142.961 59.063C142.732 58.9372 142.483 58.8743 142.215 58.8743C141.941 58.8743 141.69 58.9372 141.46 59.063C141.236 59.1834 141.055 59.3693 140.918 59.621C140.782 59.8726 140.713 60.1789 140.713 60.5399C140.713 60.9064 140.779 61.2155 140.91 61.4671C141.047 61.7187 141.227 61.9075 141.452 62.0333C141.676 62.1536 141.922 62.2138 142.19 62.2138Z" fill="black"/>
<path d="M152.419 58.2261C152.807 58.2261 153.146 58.3109 153.436 58.4805C153.732 58.65 153.951 58.8634 154.093 59.1205V58.2999H154.848V62.8948C154.848 63.3051 154.76 63.6688 154.585 63.9861C154.41 64.3088 154.158 64.5605 153.83 64.741C153.508 64.9215 153.13 65.0117 152.698 65.0117C152.107 65.0117 151.615 64.8722 151.221 64.5933C150.827 64.3143 150.595 63.9341 150.524 63.4528H151.262C151.344 63.7263 151.514 63.9451 151.771 64.1092C152.028 64.2787 152.337 64.3635 152.698 64.3635C153.108 64.3635 153.442 64.235 153.699 63.9779C153.962 63.7208 154.093 63.3598 154.093 62.8948V61.9512C153.945 62.2138 153.726 62.4326 153.436 62.6076C153.146 62.7827 152.807 62.8702 152.419 62.8702C152.02 62.8702 151.656 62.7717 151.328 62.5748C151.005 62.3779 150.751 62.1016 150.565 61.7461C150.379 61.3905 150.286 60.9858 150.286 60.5317C150.286 60.0722 150.379 59.6702 150.565 59.3256C150.751 58.9755 151.005 58.7047 151.328 58.5133C151.656 58.3218 152.02 58.2261 152.419 58.2261ZM154.093 60.5399C154.093 60.2008 154.024 59.9054 153.888 59.6538C153.751 59.4022 153.565 59.2107 153.33 59.0794C153.1 58.9427 152.846 58.8743 152.567 58.8743C152.288 58.8743 152.033 58.9399 151.804 59.0712C151.574 59.2025 151.391 59.394 151.254 59.6456C151.117 59.8972 151.049 60.1926 151.049 60.5317C151.049 60.8763 151.117 61.1772 151.254 61.4343C151.391 61.6859 151.574 61.8801 151.804 62.0169C152.033 62.1481 152.288 62.2138 152.567 62.2138C152.846 62.2138 153.1 62.1481 153.33 62.0169C153.565 61.8801 153.751 61.6859 153.888 61.4343C154.024 61.1772 154.093 60.8791 154.093 60.5399Z" fill="black"/>
<path d="M161.582 57.5697C161.44 57.5697 161.32 57.5205 161.221 57.422C161.123 57.3235 161.074 57.2032 161.074 57.061C161.074 56.9187 161.123 56.7984 161.221 56.6999C161.32 56.6015 161.44 56.5522 161.582 56.5522C161.719 56.5522 161.834 56.6015 161.927 56.6999C162.025 56.7984 162.075 56.9187 162.075 57.061C162.075 57.2032 162.025 57.3235 161.927 57.422C161.834 57.5205 161.719 57.5697 161.582 57.5697ZM161.943 58.2999V62.7963H161.197V58.2999H161.943Z" fill="black"/>
<path d="M172.406 60.3758C172.406 60.5181 172.397 60.6685 172.381 60.8271H168.787C168.815 61.2702 168.965 61.6175 169.238 61.8692C169.517 62.1153 169.854 62.2384 170.248 62.2384C170.57 62.2384 170.838 62.1646 171.052 62.0169C171.271 61.8637 171.424 61.6613 171.511 61.4097H172.315C172.195 61.8418 171.954 62.1946 171.593 62.4681C171.232 62.7362 170.784 62.8702 170.248 62.8702C169.821 62.8702 169.438 62.7745 169.099 62.583C168.765 62.3916 168.503 62.1208 168.311 61.7707C168.12 61.4152 168.024 61.0049 168.024 60.5399C168.024 60.075 168.117 59.6675 168.303 59.3174C168.489 58.9673 168.749 58.6993 169.083 58.5133C169.422 58.3218 169.81 58.2261 170.248 58.2261C170.674 58.2261 171.052 58.3191 171.38 58.5051C171.708 58.6911 171.96 58.9481 172.135 59.2763C172.315 59.5991 172.406 59.9656 172.406 60.3758ZM171.634 60.2199C171.634 59.9355 171.571 59.6921 171.446 59.4897C171.32 59.2818 171.148 59.1259 170.929 59.022C170.715 58.9126 170.477 58.8579 170.215 58.8579C169.837 58.8579 169.515 58.9782 169.247 59.2189C168.984 59.4596 168.834 59.7933 168.795 60.2199H171.634Z" fill="black"/>
<path d="M180.07 62.8702C179.726 62.8702 179.417 62.8128 179.143 62.6979C178.869 62.5775 178.653 62.4134 178.495 62.2056C178.336 61.9922 178.249 61.7488 178.232 61.4753H179.004C179.025 61.6996 179.129 61.8828 179.315 62.0251C179.507 62.1673 179.756 62.2384 180.062 62.2384C180.346 62.2384 180.571 62.1755 180.735 62.0497C180.899 61.9239 180.981 61.7652 180.981 61.5738C180.981 61.3769 180.893 61.2319 180.718 61.1389C180.543 61.0405 180.273 60.9447 179.906 60.8517C179.572 60.7642 179.299 60.6767 179.086 60.5892C178.878 60.4962 178.697 60.3622 178.544 60.1871C178.396 60.0066 178.322 59.7714 178.322 59.4815C178.322 59.2517 178.391 59.0411 178.528 58.8497C178.664 58.6582 178.859 58.5078 179.11 58.3984C179.362 58.2835 179.649 58.2261 179.972 58.2261C180.47 58.2261 180.872 58.3519 181.178 58.6035C181.484 58.8552 181.648 59.1998 181.67 59.6374H180.924C180.907 59.4022 180.811 59.2134 180.636 59.0712C180.467 58.929 180.237 58.8579 179.947 58.8579C179.679 58.8579 179.466 58.9153 179.307 59.0302C179.148 59.1451 179.069 59.2955 179.069 59.4815C179.069 59.6292 179.116 59.7522 179.209 59.8507C179.307 59.9437 179.427 60.0203 179.57 60.0805C179.717 60.1352 179.92 60.1981 180.177 60.2692C180.5 60.3567 180.762 60.4442 180.965 60.5317C181.167 60.6138 181.339 60.7396 181.481 60.9092C181.629 61.0787 181.706 61.3003 181.711 61.5738C181.711 61.8199 181.643 62.0415 181.506 62.2384C181.369 62.4353 181.175 62.5912 180.924 62.7061C180.677 62.8155 180.393 62.8702 180.07 62.8702Z" fill="black"/>
</g>
</svg>
